<svg width="122" height="30" viewBox="0 0 122 30" fill="none" xmlns="http://www.w3.org/2000/svg">
<path d="M32.0656 10.614H44.408V12.9117H39.5483V25.864H36.8846V12.9117H32.0453L32.0656 10.614ZM43.8793 14.823H46.1566V16.958H46.1973C46.2786 16.653 46.421 16.3684 46.6243 16.0837C46.8276 15.799 47.0716 15.5347 47.3766 15.311C47.6613 15.067 47.9866 14.884 48.3526 14.7417C48.6983 14.5993 49.0643 14.518 49.4303 14.518C49.715 14.518 49.9183 14.5383 50.02 14.5383C50.1216 14.5587 50.2436 14.579 50.3453 14.579V16.9174C50.1826 16.8767 49.9996 16.8563 49.8166 16.836C49.6336 16.8157 49.471 16.7954 49.288 16.7954C48.8813 16.7954 48.495 16.8767 48.129 17.0393C47.763 17.202 47.458 17.446 47.1733 17.751C46.909 18.0763 46.6853 18.4627 46.5226 18.9304C46.36 19.398 46.2786 19.947 46.2786 20.557V25.803H43.8386L43.8793 14.823ZM61.5287 25.864H59.1293V24.3187H59.0887C58.7837 24.888 58.3363 25.315 57.7466 25.6607C57.157 26.0064 56.547 26.169 55.937 26.169C54.4933 26.169 53.436 25.8234 52.7853 25.0914C52.1346 24.3797 51.8093 23.2817 51.8093 21.838V14.823H54.2493V21.594C54.2493 22.57 54.4323 23.2614 54.8186 23.6477C55.1846 24.0544 55.7133 24.2577 56.3843 24.2577C56.8926 24.2577 57.3196 24.1764 57.6653 24.0137C58.011 23.851 58.2957 23.6477 58.499 23.3834C58.7227 23.119 58.865 22.7937 58.9667 22.4277C59.0683 22.0617 59.109 21.655 59.109 21.228V14.823H61.549V25.864H61.5287ZM65.6767 22.326C65.758 23.0377 66.0223 23.5257 66.49 23.8307C66.9577 24.1154 67.527 24.2577 68.1777 24.2577C68.4013 24.2577 68.6657 24.2374 68.9503 24.1967C69.235 24.156 69.5197 24.095 69.7637 23.9934C70.028 23.8917 70.2313 23.7494 70.394 23.546C70.5567 23.3427 70.638 23.0987 70.6177 22.7937C70.5973 22.4887 70.4957 22.2244 70.272 22.021C70.0483 21.8177 69.784 21.6754 69.4587 21.533C69.1333 21.411 68.747 21.3094 68.32 21.228C67.893 21.1467 67.466 21.045 67.0187 20.9434C66.5713 20.8417 66.124 20.7197 65.697 20.5774C65.27 20.435 64.904 20.252 64.5583 19.9877C64.233 19.7437 63.9483 19.4387 63.7653 19.0524C63.562 18.666 63.4603 18.2187 63.4603 17.6493C63.4603 17.0393 63.6027 16.5513 63.9077 16.1447C64.1923 15.738 64.5787 15.4127 65.026 15.1687C65.4733 14.9247 65.9817 14.7417 66.5307 14.64C67.0797 14.5383 67.6083 14.4977 68.0963 14.4977C68.6657 14.4977 69.2147 14.5587 69.723 14.6807C70.2313 14.8027 70.7193 14.9857 71.126 15.2704C71.553 15.5347 71.8987 15.9007 72.163 16.3277C72.4477 16.7547 72.6103 17.2834 72.6917 17.8934H70.15C70.028 17.3037 69.7637 16.9174 69.357 16.714C68.93 16.5107 68.4623 16.409 67.9133 16.409C67.7507 16.409 67.527 16.4293 67.3033 16.4497C67.0593 16.4903 66.856 16.531 66.6323 16.6124C66.429 16.6937 66.246 16.8157 66.1037 16.958C65.9613 17.1003 65.88 17.3037 65.88 17.5477C65.88 17.8527 65.9817 18.0763 66.185 18.2593C66.3883 18.4423 66.6527 18.5847 66.9983 18.727C67.3237 18.849 67.71 18.9507 68.137 19.032C68.564 19.1134 69.0113 19.215 69.4587 19.3167C69.906 19.4184 70.333 19.5404 70.76 19.6827C71.187 19.825 71.5733 20.008 71.8987 20.2724C72.224 20.5164 72.5087 20.8214 72.712 21.1874C72.9153 21.5534 73.017 22.021 73.017 22.5497C73.017 23.2004 72.8747 23.7494 72.5697 24.217C72.2647 24.6644 71.8783 25.0507 71.4107 25.3354C70.943 25.62 70.394 25.8234 69.8247 25.9657C69.235 26.0877 68.6657 26.169 68.0963 26.169C67.405 26.169 66.7543 26.0877 66.1647 25.925C65.575 25.7624 65.0463 25.5184 64.6193 25.2134C64.1923 24.888 63.8467 24.5017 63.6027 24.0137C63.3587 23.546 63.2163 22.9767 63.196 22.3057H65.6563V22.326H65.6767ZM73.7083 14.823H75.5587V11.4883H77.9987V14.8027H80.1947V16.6124H77.9987V22.509C77.9987 22.7734 78.019 22.9767 78.0393 23.18C78.0597 23.363 78.1207 23.5257 78.1817 23.6477C78.263 23.7697 78.385 23.8714 78.5273 23.9324C78.69 23.9934 78.8933 24.034 79.178 24.034C79.3407 24.034 79.5237 24.034 79.6863 24.0137C79.849 23.9934 80.032 23.973 80.1947 23.9324V25.8234C79.9303 25.864 79.666 25.8844 79.4017 25.9047C79.1373 25.9454 78.8933 25.9454 78.6087 25.9454C77.958 25.9454 77.4497 25.8844 77.0633 25.7624C76.677 25.6404 76.372 25.4574 76.1483 25.2337C75.9247 24.9897 75.7823 24.705 75.701 24.3594C75.6197 24.0137 75.579 23.5867 75.5587 23.1394V16.6327H73.7083V14.7824V14.823ZM81.9027 14.823H84.2003V16.3277H84.241C84.5867 15.677 85.0543 15.2297 85.6643 14.945C86.2743 14.6603 86.925 14.518 87.657 14.518C88.5313 14.518 89.2837 14.6604 89.9343 14.9857C90.585 15.2907 91.1137 15.6973 91.5407 16.2463C91.9677 16.775 92.293 17.4054 92.4964 18.117C92.6997 18.8287 92.8217 19.6014 92.8217 20.3944C92.8217 21.1467 92.72 21.8584 92.537 22.5497C92.3337 23.241 92.049 23.8714 91.6627 24.4C91.2763 24.9287 90.7884 25.3557 90.1784 25.681C89.5684 26.0064 88.877 26.169 88.0637 26.169C87.718 26.169 87.352 26.1284 87.0063 26.0674C86.6607 26.0064 86.315 25.9047 85.9897 25.7624C85.6643 25.62 85.3593 25.437 85.095 25.2134C84.8103 24.9897 84.5867 24.7254 84.4037 24.4407H84.363V29.951H81.923V14.823H81.9027ZM90.4224 20.3537C90.4224 19.8657 90.3614 19.3777 90.219 18.91C90.097 18.4424 89.8937 18.0357 89.6293 17.6697C89.365 17.3037 89.0397 17.019 88.6737 16.7954C88.2873 16.5717 87.84 16.47 87.352 16.47C86.3353 16.47 85.5627 16.8157 85.034 17.5274C84.5257 18.239 84.2613 19.1947 84.2613 20.374C84.2613 20.9434 84.3223 21.4517 84.4647 21.9194C84.607 22.387 84.79 22.7937 85.0747 23.1394C85.339 23.485 85.6643 23.7494 86.0507 23.9527C86.437 24.156 86.864 24.2577 87.3723 24.2577C87.9417 24.2577 88.389 24.1357 88.7753 23.912C89.1617 23.6884 89.4667 23.3834 89.731 23.0377C89.975 22.6717 90.158 22.265 90.2597 21.7974C90.3614 21.3094 90.4224 20.8417 90.4224 20.3537ZM94.7127 10.614H97.1527V12.9117H94.7127V10.614ZM94.7127 14.823H97.1527V25.864H94.7127V14.823ZM99.3284 10.614H101.768V25.864H99.3284V10.614ZM109.21 26.169C108.336 26.169 107.543 26.0267 106.852 25.7217C106.16 25.4167 105.591 25.0304 105.103 24.522C104.635 24.0137 104.269 23.3834 104.025 22.6717C103.781 21.96 103.639 21.167 103.639 20.3334C103.639 19.4997 103.761 18.727 104.025 18.0154C104.269 17.3037 104.635 16.6937 105.103 16.165C105.571 15.6567 106.16 15.25 106.852 14.9654C107.543 14.6807 108.336 14.518 109.21 14.518C110.085 14.518 110.878 14.6603 111.569 14.9654C112.26 15.25 112.83 15.6567 113.318 16.165C113.785 16.6734 114.151 17.3037 114.395 18.0154C114.639 18.727 114.782 19.4997 114.782 20.3334C114.782 21.1874 114.66 21.96 114.395 22.6717C114.131 23.3834 113.785 23.9934 113.318 24.522C112.85 25.0304 112.26 25.437 111.569 25.7217C110.878 26.0064 110.105 26.169 109.21 26.169ZM109.21 24.2374C109.739 24.2374 110.227 24.1154 110.613 23.8917C111.02 23.668 111.325 23.363 111.589 22.997C111.854 22.631 112.037 22.204 112.159 21.7567C112.281 21.289 112.342 20.8214 112.342 20.3334C112.342 19.8657 112.281 19.398 112.159 18.9304C112.037 18.4627 111.854 18.056 111.589 17.69C111.325 17.324 111 17.0394 110.613 16.8157C110.207 16.592 109.739 16.47 109.21 16.47C108.682 16.47 108.194 16.592 107.807 16.8157C107.401 17.0394 107.096 17.3444 106.831 17.69C106.567 18.056 106.384 18.4627 106.262 18.9304C106.14 19.398 106.079 19.8657 106.079 20.3334C106.079 20.8214 106.14 21.289 106.262 21.7567C106.384 22.2244 106.567 22.631 106.831 22.997C107.096 23.363 107.421 23.668 107.807 23.8917C108.214 24.1357 108.682 24.2374 109.21 24.2374ZM115.514 14.823H117.364V11.4883H119.804V14.8027H122V16.6124H119.804V22.509C119.804 22.7734 119.824 22.9767 119.845 23.18C119.865 23.363 119.926 23.5257 119.987 23.6477C120.068 23.7697 120.19 23.8714 120.333 23.9324C120.495 23.9934 120.699 24.034 120.983 24.034C121.146 24.034 121.329 24.034 121.492 24.0137C121.654 23.9934 121.837 23.973 122 23.9324V25.8234C121.736 25.864 121.471 25.8844 121.207 25.9047C120.943 25.9454 120.699 25.9454 120.414 25.9454C119.763 25.9454 119.255 25.8844 118.869 25.7624C118.482 25.6404 118.177 25.4574 117.954 25.2337C117.73 24.9897 117.588 24.705 117.506 24.3594C117.425 24.0137 117.384 23.5867 117.364 23.1394V16.6327H115.514V14.7824V14.823Z" fill="white"/>
<path d="M29.219 10.614H18.056L14.6197 0L11.163 10.614L0 10.5937L9.02801 17.1614L5.57134 27.7754L14.5993 21.2077L23.6274 27.7754L20.191 17.1614L29.219 10.614Z" fill="#00B67A"/>
<path d="M20.9634 19.5607L20.1907 17.1613L14.6194 21.2077L20.9634 19.5607Z" fill="#005128"/>
</svg>
