<svg style="width: 100%; height: auto;" xmlns="http://www.w3.org/2000/svg" width="512" height="212" viewBox="0 0 512 212">
  <g fill="none" fill-rule="evenodd">
    <g fill-rule="nonzero">
      <rect width="96" height="96" fill="#00B67A"/>
      <rect width="96" height="96" x="104" fill="#00B67A"/>
      <rect width="96" height="96" x="208" fill="#00B67A"/>
      <rect width="96" height="96" x="312" fill="#00B67A"/>
      <rect width="96" height="96" x="416" fill="#00B67A"/>
      <path fill="#FFF" d="M48 64.7L62.6 61 68.7 79.8 48 64.7zM81.6 40.4L55.9 40.4 48 16.2 40.1 40.4 14.4 40.4 35.2 55.4 27.3 79.6 48.1 64.6 60.9 55.4 81.6 40.4zM152 64.7L166.6 61 172.7 79.8 152 64.7zM185.6 40.4L159.9 40.4 152 16.2 144.1 40.4 118.4 40.4 139.2 55.4 131.3 79.6 152.1 64.6 164.9 55.4 185.6 40.4zM256 64.7L270.6 61 276.7 79.8 256 64.7zM289.6 40.4L263.9 40.4 256 16.2 248.1 40.4 222.4 40.4 243.2 55.4 235.3 79.6 256.1 64.6 268.9 55.4 289.6 40.4zM360 64.7L374.6 61 380.7 79.8 360 64.7zM393.6 40.4L367.9 40.4 360 16.2 352.1 40.4 326.4 40.4 347.2 55.4 339.3 79.6 360.1 64.6 372.9 55.4 393.6 40.4zM464 64.7L478.6 61 484.7 79.8 464 64.7zM497.6 40.4L471.9 40.4 464 16.2 456.1 40.4 430.4 40.4 451.2 55.4 443.3 79.6 464.1 64.6 476.9 55.4 497.6 40.4z"/>
    </g>
    <g transform="translate(52 119)">
      <path fill="#161615" d="M357.875587,46.154 L363.570609,46.154 L363.570609,35.8983333 L371.1206,35.8983333 L371.1206,46.154 L377.939947,46.154 L377.939947,51.778 L371.1206,51.778 L371.1206,70.04 C371.1206,70.834 371.153963,71.5183333 371.220688,72.091 C371.287414,72.665 371.440883,73.1496667 371.684431,73.5466667 C371.924643,73.944 372.288297,74.2413333 372.775393,74.44 C373.262489,74.6386667 373.923071,74.738 374.763813,74.738 C375.294281,74.738 375.821412,74.7273333 376.35188,74.7046667 C376.882348,74.683 377.412816,74.6053333 377.939947,74.4733333 L377.939947,80.296 C377.102542,80.3836667 376.285154,80.4716667 375.491121,80.5603333 C374.697087,80.6483333 373.8797,80.693 373.042295,80.693 C371.053875,80.693 369.452462,80.5046667 368.238058,80.1303333 C367.023654,79.756 366.076152,79.204 365.392215,78.4763333 C364.708279,77.7483333 364.244537,76.8336667 364.000989,75.7303333 C363.75744,74.6283333 363.613981,73.371 363.570609,71.959 L363.570609,51.778 L357.875587,51.778 L357.875587,46.154 Z M338.405084,75.3333333 C340.08323,75.3333333 341.541183,74.9806667 342.775605,74.2746667 C344.013363,73.5696667 345.02759,72.6433333 345.82496,71.4956667 C346.618994,70.3493333 347.202842,69.059 347.576505,67.625 C347.953504,66.192 348.140335,64.725 348.140335,63.225 C348.140335,61.769 347.953504,60.3133333 347.576505,58.8576667 C347.202842,57.4023333 346.618994,56.112 345.82496,54.987 C345.02759,53.8623333 344.013363,52.9473333 342.775605,52.241 C341.541183,51.536 340.08323,51.1826667 338.405084,51.1826667 C336.726937,51.1826667 335.272321,51.536 334.034563,52.241 C332.798807,52.9473333 331.783578,53.8623333 330.988877,54.987 C330.194177,56.112 329.60866,57.4023333 329.233996,58.8576667 C328.858332,60.3133333 328.671167,61.769 328.671167,63.225 C328.671167,64.725 328.858332,66.192 329.233996,67.625 C329.60866,69.059 330.194177,70.3493333 330.988877,71.4956667 C331.783578,72.6433333 332.798807,73.5696667 334.034563,74.2746667 C335.272321,74.9806667 336.726937,75.3333333 338.405084,75.3333333 Z M338.405084,81.2883333 C335.669338,81.2883333 333.229186,80.8356667 331.088298,79.932 C328.946076,79.0283333 327.13648,77.7816667 325.657843,76.1936667 C324.177871,74.6053333 323.052212,72.7093333 322.280531,70.5033333 C321.507183,68.298 321.121509,65.8713333 321.121509,63.225 C321.121509,60.6226667 321.507183,58.219 322.280531,56.0126667 C323.052212,53.8076667 324.177871,51.9103333 325.657843,50.3223333 C327.13648,48.7346667 328.946076,47.4886667 331.088298,46.584 C333.229186,45.6806667 335.669338,45.2276667 338.405084,45.2276667 C341.144166,45.2276667 343.582983,45.6806667 345.724872,46.584 C347.863425,47.4886667 349.675022,48.7346667 351.152992,50.3223333 C352.634298,51.9103333 353.758623,53.8076667 354.532639,56.0126667 C355.303319,58.219 355.690327,60.6226667 355.690327,63.225 C355.690327,65.8713333 355.303319,68.298 354.532639,70.5033333 C353.758623,72.7093333 352.634298,74.6053333 351.152992,76.1936667 C349.675022,77.7816667 347.863425,79.0283333 345.724872,79.932 C343.582983,80.8356667 341.144166,81.2883333 338.405084,81.2883333 Z M307.744046,80.362 L315.293703,80.362 L315.293703,33.1193333 L307.744046,33.1193333 L307.744046,80.362 Z M293.447439,80.362 L300.997096,80.362 L300.997096,46.154 L293.447439,46.154 L293.447439,80.362 Z M293.447439,40.2653333 L300.997096,40.2653333 L300.997096,33.1193333 L293.447439,33.1193333 L293.447439,40.2653333 Z M280.136367,63.291 C280.136367,61.7473333 279.937859,60.2473333 279.540175,58.7916667 C279.143158,57.336 278.546966,56.046 277.752265,54.921 C276.957564,53.796 275.964355,52.8926667 274.77197,52.208 C273.580252,51.5246667 272.211379,51.1826667 270.66635,51.1826667 C267.487213,51.1826667 265.092101,52.2856667 263.481013,54.4906667 C261.868925,56.6973333 261.063548,59.63 261.063548,63.291 C261.063548,65.0113333 261.272399,66.6106667 261.69277,68.088 C262.111806,69.5663333 262.741027,70.834 263.580101,71.8926667 C264.418173,72.9513333 265.423059,73.7896667 266.593425,74.407 C267.762789,75.0253333 269.12032,75.3333333 270.66635,75.3333333 C272.388201,75.3333333 273.845153,74.9806667 275.03687,74.2746667 C276.228921,73.5696667 277.211121,72.6536667 277.984136,71.529 C278.75615,70.404 279.308637,69.125 279.639596,67.691 C279.970888,66.258 280.136367,64.7913333 280.136367,63.291 Z M253.778791,46.154 L260.931098,46.154 L260.931098,50.7853333 L261.063548,50.7853333 C262.123149,48.8006667 263.601786,47.3783333 265.500461,46.518 C267.398468,45.6576667 269.451278,45.2276667 271.659559,45.2276667 C274.352267,45.2276667 276.703006,45.7023333 278.712778,46.6503333 C280.720883,47.5993333 282.388019,48.9 283.712521,50.554 C285.037022,52.208 286.030231,54.1383333 286.692816,56.3433333 C287.354733,58.5496667 287.686025,60.909 287.686025,63.4233333 C287.686025,65.7173333 287.388095,67.9453333 286.792237,70.106 C286.196044,72.268 285.290579,74.1753333 284.076842,75.8296667 C282.861771,77.4836667 281.328418,78.8073333 279.474117,79.7996667 C277.619815,80.792 275.434554,81.2883333 272.918002,81.2883333 C271.813695,81.2883333 270.709721,81.189 269.606748,80.9903333 C268.502441,80.792 267.443174,80.4716667 266.427945,80.0313333 C265.411716,79.5906667 264.474222,79.0283333 263.61313,78.344 C262.752371,77.6603333 262.034404,76.855 261.460898,75.929 L261.328448,75.929 L261.328448,93 L253.778791,93 L253.778791,46.154 Z M228.415091,46.154 L234.110447,46.154 L234.110447,35.8983333 L241.660104,35.8983333 L241.660104,46.154 L248.481453,46.154 L248.481453,51.778 L241.660104,51.778 L241.660104,70.04 C241.660104,70.834 241.693467,71.5183333 241.759525,72.091 C241.825583,72.665 241.979719,73.1496667 242.223267,73.5466667 C242.465147,73.944 242.829469,74.2413333 243.315898,74.44 C243.800992,74.6386667 244.463576,74.738 245.302316,74.738 C245.83245,74.738 246.362251,74.7273333 246.892051,74.7046667 C247.421852,74.683 247.951652,74.6053333 248.481453,74.4733333 L248.481453,80.296 C247.642046,80.3836667 246.825993,80.4716667 246.030959,80.5603333 C245.236258,80.6483333 244.41887,80.693 243.580798,80.693 C241.594046,80.693 239.992967,80.5046667 238.77923,80.1303333 C237.564492,79.756 236.615656,79.204 235.931719,78.4763333 C235.246782,77.7483333 234.78304,76.8336667 234.540826,75.7303333 C234.297945,74.6283333 234.153818,73.371 234.110447,71.959 L234.110447,51.778 L228.415091,51.778 L228.415091,46.154 Z M203.5148,69.3783333 C203.734994,71.5846667 204.574401,73.1283333 206.031352,74.01 C207.48797,74.893 209.231841,75.3333333 211.262966,75.3333333 C211.968588,75.3333333 212.774966,75.2786667 213.680431,75.168 C214.584561,75.0583333 215.435312,74.8486667 216.230012,74.5393333 C217.02438,74.2313333 217.67562,73.7783333 218.183735,73.183 C218.690849,72.5876667 218.922387,71.8046667 218.879015,70.834 C218.834309,69.8643333 218.481665,69.0703333 217.819414,68.452 C217.157163,67.835 216.306413,67.3383333 215.269832,66.963 C214.231583,66.589 213.051209,66.2683333 211.726708,66.004 C210.402207,65.7393333 209.055019,65.4526667 207.686812,65.1436667 C206.273566,64.8356667 204.916035,64.4603333 203.613887,64.0186667 C202.311405,63.5783333 201.14104,62.983 200.104125,62.2323333 C199.06621,61.4826667 198.23848,60.5233333 197.620602,59.354 C197.002056,58.1856667 196.693451,56.7406667 196.693451,55.02 C196.693451,53.1676667 197.145516,51.6126667 198.050981,50.3553333 C198.955446,49.0986667 200.104125,48.0843333 201.495019,47.312 C202.885912,46.5406667 204.430274,46 206.13044,45.691 C207.829605,45.3826667 209.452035,45.2276667 210.998065,45.2276667 C212.763622,45.2276667 214.452111,45.416 216.064533,45.79 C217.67562,46.1653333 219.132572,46.7723333 220.435054,47.6096667 C221.736868,48.4483333 222.81949,49.54 223.680249,50.8846667 C224.541342,52.2306667 225.081485,53.8516667 225.30268,55.748 L217.422064,55.748 C217.068085,53.9396667 216.240355,52.727 214.93854,52.109 C213.635725,51.4913333 212.145744,51.1826667 210.468265,51.1826667 C209.938464,51.1826667 209.309243,51.2266667 208.580934,51.3146667 C207.852291,51.4036667 207.167688,51.5693333 206.528124,51.811 C205.887559,52.054 205.346415,52.4066667 204.905359,52.8696667 C204.463636,53.333 204.243109,53.9396667 204.243109,54.6893333 C204.243109,55.6156667 204.563057,56.366 205.203622,56.939 C205.843186,57.5126667 206.681926,57.9873333 207.720175,58.3616667 C208.756756,58.737 209.938464,59.0563333 211.262966,59.321 C212.587801,59.5856667 213.95534,59.873 215.369253,60.1813333 C216.736793,60.4903333 218.084314,60.8656667 219.408816,61.306 C220.733317,61.7473333 221.914025,62.343 222.95194,63.0923333 C223.988521,63.843 224.827928,64.7913333 225.468492,65.9376667 C226.107723,67.0853333 226.428673,68.4963333 226.428673,70.1723333 C226.428673,72.2016667 225.96493,73.922 225.037779,75.3333333 C224.110962,76.7456667 222.907234,77.8923333 221.428597,78.774 C219.948959,79.657 218.304508,80.296 216.494913,80.693 C214.683982,81.0896667 212.895739,81.2883333 211.130515,81.2883333 C208.966941,81.2883333 206.968846,81.0456667 205.137564,80.5603333 C203.304614,80.0753333 201.715213,79.3366667 200.369359,78.344 C199.021838,77.3516667 197.962237,76.117 197.190222,74.6386667 C196.417207,73.161 196.008514,71.4076667 195.964808,69.3783333 L203.5148,69.3783333 Z M190.66747,80.362 L183.250597,80.362 L183.250597,75.598 L183.118147,75.598 C182.190996,77.3183333 180.810445,78.6976667 178.979163,79.7333333 C177.146547,80.7693333 175.280902,81.2883333 173.382895,81.2883333 C168.87959,81.2883333 165.623386,80.1746667 163.614614,77.947 C161.605509,75.72 160.601624,72.3556667 160.601624,67.8563333 L160.601624,46.154 L168.151282,46.154 L168.151282,67.1286667 C168.151282,70.129 168.724454,72.2463333 169.873133,73.4806667 C171.020478,74.716 172.631566,75.3333333 174.707396,75.3333333 C176.296798,75.3333333 177.621299,75.0913333 178.6809,74.6053333 C179.740501,74.1206667 180.601594,73.4703333 181.263511,72.6536667 C181.926095,71.838 182.399846,70.8566667 182.687433,69.7093333 C182.974019,68.5626667 183.118147,67.327 183.118147,66.004 L183.118147,46.154 L190.66747,46.154 L190.66747,80.362 Z M135.956558,46.154 L143.042473,46.154 L143.042473,52.7703333 L143.175257,52.7703333 C143.395451,51.844 143.825831,50.9406667 144.466395,50.058 C145.105959,49.176 145.878974,48.3706667 146.78444,47.643 C147.68857,46.915 148.693456,46.3306667 149.797763,45.8893333 C150.900736,45.449 152.026395,45.2276667 153.175075,45.2276667 C154.057853,45.2276667 154.665056,45.2503333 154.996348,45.294 C155.32764,45.3383333 155.668941,45.3826667 156.02292,45.4263333 L156.02292,52.7043333 C155.493119,52.6163333 154.951975,52.539 154.400155,52.4726667 C153.847668,52.4066667 153.307525,52.3736667 152.777725,52.3736667 C151.496595,52.3736667 150.294201,52.628 149.168542,53.1343333 C148.042883,53.6423333 147.059682,54.3916667 146.22161,55.384 C145.382203,56.3766667 144.719952,57.6006667 144.234858,59.0563333 C143.748429,60.512 143.506215,62.189 143.506215,64.085 L143.506215,80.362 L135.956558,80.362 L135.956558,46.154 Z M99.3349303,33.1193333 L137.613019,33.1193333 L137.613019,40.2653333 L122.579762,40.2653333 L122.579762,80.362 L114.301795,80.362 L114.301795,40.2653333 L99.3349303,40.2653333 L99.3349303,33.1193333 Z"/>
      <polyline fill="#11AA73" points="90.52 33.119 55.943 33.113 45.26 .259 34.579 33.11 0 33.104 27.976 53.417 17.292 86.275 45.264 65.97 73.228 86.275 62.547 53.425 90.52 33.119"/>
      <polyline fill="#114728" points="65 61.717 62.542 54 45 67 65 61.717"/>
    </g>
  </g>
</svg>
